<svg viewBox="0 0 848.5 400" xmlns="http://www.w3.org/2000/svg"><g><g><g><g><g><line x1="53.125" y1="377" x2="48.125" y2="377" style="visibility: inherit;" fill="rgb(0, 0, 0)" stroke="rgb(204, 204, 204)" stroke-width="1px"></line><line x1="53.125" y1="342.72727272727275" x2="48.125" y2="342.72727272727275" style="visibility: inherit;" fill="rgb(0, 0, 0)" stroke="rgb(204, 204, 204)" stroke-width="1px"></line><line x1="53.125" y1="308.45454545454544" x2="48.125" y2="308.45454545454544" style="visibility: inherit;" fill="rgb(0, 0, 0)" stroke="rgb(204, 204, 204)" stroke-width="1px"></line><line x1="53.125" y1="274.1818181818182" x2="48.125" y2="274.1818181818182" style="visibility: inherit;" fill="rgb(0, 0, 0)" stroke="rgb(204, 204, 204)" stroke-width="1px"></line><line x1="53.125" y1="239.9090909090909" x2="48.125" y2="239.9090909090909" style="visibility: inherit;" fill="rgb(0, 0, 0)" stroke="rgb(204, 204, 204)" stroke-width="1px"></line><line x1="53.125" y1="205.63636363636365" x2="48.125" y2="205.63636363636365" style="visibility: inherit;" fill="rgb(0, 0, 0)" stroke="rgb(204, 204, 204)" stroke-width="1px"></line><line x1="53.125" y1="171.36363636363637" x2="48.125" y2="171.36363636363637" style="visibility: inherit;" fill="rgb(0, 0, 0)" stroke="rgb(204, 204, 204)" stroke-width="1px"></line><line x1="53.125" y1="137.09090909090915" x2="48.125" y2="137.09090909090915" style="visibility: inherit;" fill="rgb(0, 0, 0)" stroke="rgb(204, 204, 204)" stroke-width="1px"></line><line x1="53.125" y1="102.81818181818187" x2="48.125" y2="102.81818181818187" style="visibility: inherit;" fill="rgb(0, 0, 0)" stroke="rgb(204, 204, 204)" stroke-width="1px"></line><line x1="53.125" y1="68.54545454545456" x2="48.125" y2="68.54545454545456" style="visibility: inherit;" fill="rgb(0, 0, 0)" stroke="rgb(204, 204, 204)" stroke-width="1px"></line><line x1="53.125" y1="34.27272727272731" x2="48.125" y2="34.27272727272731" style="visibility: inherit;" fill="rgb(0, 0, 0)" stroke="rgb(204, 204, 204)" stroke-width="1px"></line><line x1="53.125" y1="0" x2="48.125" y2="0" style="visibility: inherit;" fill="rgb(0, 0, 0)" stroke="rgb(204, 204, 204)" stroke-width="1px"></line></g><g transform="translate(43.125, 0)"><text x="0" y="377" dx="0em" dy="0.3em" style="text-anchor: end; visibility: hidden; font-family: &quot;Helvetica Neue&quot;, sans-serif; font-size: 12px; font-weight: 200;" fill="rgb(50, 49, 63)" stroke="none" stroke-width="1px">-0.1</text><text x="0" y="342.72727272727275" dx="0em" dy="0.3em" style="text-anchor: end; visibility: inherit; font-family: &quot;Helvetica Neue&quot;, sans-serif; font-size: 12px; font-weight: 200;" fill="rgb(50, 49, 63)" stroke="none" stroke-width="1px">0</text><text x="0" y="308.45454545454544" dx="0em" dy="0.3em" style="text-anchor: end; visibility: inherit; font-family: &quot;Helvetica Neue&quot;, sans-serif; font-size: 12px; font-weight: 200;" fill="rgb(50, 49, 63)" stroke="none" stroke-width="1px">0.1</text><text x="0" y="274.1818181818182" dx="0em" dy="0.3em" style="text-anchor: end; visibility: inherit; font-family: &quot;Helvetica Neue&quot;, sans-serif; font-size: 12px; font-weight: 200;" fill="rgb(50, 49, 63)" stroke="none" stroke-width="1px">0.2</text><text x="0" y="239.9090909090909" dx="0em" dy="0.3em" style="text-anchor: end; visibility: inherit; font-family: &quot;Helvetica Neue&quot;, sans-serif; font-size: 12px; font-weight: 200;" fill="rgb(50, 49, 63)" stroke="none" stroke-width="1px">0.3</text><text x="0" y="205.63636363636365" dx="0em" dy="0.3em" style="text-anchor: end; visibility: inherit; font-family: &quot;Helvetica Neue&quot;, sans-serif; font-size: 12px; font-weight: 200;" fill="rgb(50, 49, 63)" stroke="none" stroke-width="1px">0.4</text><text x="0" y="171.36363636363637" dx="0em" dy="0.3em" style="text-anchor: end; visibility: inherit; font-family: &quot;Helvetica Neue&quot;, sans-serif; font-size: 12px; font-weight: 200;" fill="rgb(50, 49, 63)" stroke="none" stroke-width="1px">0.5</text><text x="0" y="137.09090909090915" dx="0em" dy="0.3em" style="text-anchor: end; visibility: inherit; font-family: &quot;Helvetica Neue&quot;, sans-serif; font-size: 12px; font-weight: 200;" fill="rgb(50, 49, 63)" stroke="none" stroke-width="1px">0.6</text><text x="0" y="102.81818181818187" dx="0em" dy="0.3em" style="text-anchor: end; visibility: inherit; font-family: &quot;Helvetica Neue&quot;, sans-serif; font-size: 12px; font-weight: 200;" fill="rgb(50, 49, 63)" stroke="none" stroke-width="1px">0.7</text><text x="0" y="68.54545454545456" dx="0em" dy="0.3em" style="text-anchor: end; visibility: inherit; font-family: &quot;Helvetica Neue&quot;, sans-serif; font-size: 12px; font-weight: 200;" fill="rgb(50, 49, 63)" stroke="none" stroke-width="1px">0.8</text><text x="0" y="34.27272727272731" dx="0em" dy="0.3em" style="text-anchor: end; visibility: inherit; font-family: &quot;Helvetica Neue&quot;, sans-serif; font-size: 12px; font-weight: 200;" fill="rgb(50, 49, 63)" stroke="none" stroke-width="1px">0.9</text><text x="0" y="0" dx="0em" dy="0.3em" style="text-anchor: end; visibility: hidden; font-family: &quot;Helvetica Neue&quot;, sans-serif; font-size: 12px; font-weight: 200;" fill="rgb(50, 49, 63)" stroke="none" stroke-width="1px">1</text></g><line x1="53.125" y1="0" x2="53.125" y2="377" fill="rgb(0, 0, 0)" stroke="rgb(204, 204, 204)" stroke-width="1px"></line></g></g><g transform="translate(53, 0)" clip-path="url(#clip_0)"><clipPath id="clip_0"><rect width="795" height="377"></rect></clipPath><g><g><g><line x1="0" y1="0" x2="0" y2="377" fill="rgb(0, 0, 0)" stroke="rgb(60, 60, 60)" stroke-width="1px" opacity="0.25"></line><line x1="66.28125" y1="0" x2="66.28125" y2="377" fill="rgb(0, 0, 0)" stroke="rgb(60, 60, 60)" stroke-width="1px" opacity="0.25"></line><line x1="132.5625" y1="0" x2="132.5625" y2="377" fill="rgb(0, 0, 0)" stroke="rgb(60, 60, 60)" stroke-width="1px" opacity="0.25"></line><line x1="198.84375" y1="0" x2="198.84375" y2="377" fill="rgb(0, 0, 0)" stroke="rgb(60, 60, 60)" stroke-width="1px" opacity="0.25"></line><line x1="265.125" y1="0" x2="265.125" y2="377" fill="rgb(0, 0, 0)" stroke="rgb(60, 60, 60)" stroke-width="1px" opacity="0.25"></line><line x1="331.40625" y1="0" x2="331.40625" y2="377" fill="rgb(0, 0, 0)" stroke="rgb(60, 60, 60)" stroke-width="1px" opacity="0.25"></line><line x1="397.6875" y1="0" x2="397.6875" y2="377" fill="rgb(0, 0, 0)" stroke="rgb(60, 60, 60)" stroke-width="1px" opacity="0.25"></line><line x1="463.96875000000006" y1="0" x2="463.96875000000006" y2="377" fill="rgb(0, 0, 0)" stroke="rgb(60, 60, 60)" stroke-width="1px" opacity="0.25"></line><line x1="530.25" y1="0" x2="530.25" y2="377" fill="rgb(0, 0, 0)" stroke="rgb(60, 60, 60)" stroke-width="1px" opacity="0.25"></line><line x1="596.53125" y1="0" x2="596.53125" y2="377" fill="rgb(0, 0, 0)" stroke="rgb(60, 60, 60)" stroke-width="1px" opacity="0.25"></line><line x1="662.8125" y1="0" x2="662.8125" y2="377" fill="rgb(0, 0, 0)" stroke="rgb(60, 60, 60)" stroke-width="1px" opacity="0.25"></line><line x1="729.09375" y1="0" x2="729.09375" y2="377" fill="rgb(0, 0, 0)" stroke="rgb(60, 60, 60)" stroke-width="1px" opacity="0.25"></line><line x1="795.375" y1="0" x2="795.375" y2="377" fill="rgb(0, 0, 0)" stroke="rgb(60, 60, 60)" stroke-width="1px" opacity="0.25"></line></g><g><line x1="0" y1="377" x2="795.375" y2="377" fill="rgb(0, 0, 0)" stroke="rgb(60, 60, 60)" stroke-width="1px" opacity="0.25"></line><line x1="0" y1="342.72727272727275" x2="795.375" y2="342.72727272727275" fill="rgb(0, 0, 0)" stroke="rgb(60, 60, 60)" stroke-width="1px" opacity="0.25"></line><line x1="0" y1="308.45454545454544" x2="795.375" y2="308.45454545454544" fill="rgb(0, 0, 0)" stroke="rgb(60, 60, 60)" stroke-width="1px" opacity="0.25"></line><line x1="0" y1="274.1818181818182" x2="795.375" y2="274.1818181818182" fill="rgb(0, 0, 0)" stroke="rgb(60, 60, 60)" stroke-width="1px" opacity="0.25"></line><line x1="0" y1="239.9090909090909" x2="795.375" y2="239.9090909090909" fill="rgb(0, 0, 0)" stroke="rgb(60, 60, 60)" stroke-width="1px" opacity="0.25"></line><line x1="0" y1="205.63636363636365" x2="795.375" y2="205.63636363636365" fill="rgb(0, 0, 0)" stroke="rgb(60, 60, 60)" stroke-width="1px" opacity="0.25"></line><line x1="0" y1="171.36363636363637" x2="795.375" y2="171.36363636363637" fill="rgb(0, 0, 0)" stroke="rgb(60, 60, 60)" stroke-width="1px" opacity="0.25"></line><line x1="0" y1="137.09090909090915" x2="795.375" y2="137.09090909090915" fill="rgb(0, 0, 0)" stroke="rgb(60, 60, 60)" stroke-width="1px" opacity="0.25"></line><line x1="0" y1="102.81818181818187" x2="795.375" y2="102.81818181818187" fill="rgb(0, 0, 0)" stroke="rgb(60, 60, 60)" stroke-width="1px" opacity="0.25"></line><line x1="0" y1="68.54545454545456" x2="795.375" y2="68.54545454545456" fill="rgb(0, 0, 0)" stroke="rgb(60, 60, 60)" stroke-width="1px" opacity="0.25"></line><line x1="0" y1="34.27272727272731" x2="795.375" y2="34.27272727272731" fill="rgb(0, 0, 0)" stroke="rgb(60, 60, 60)" stroke-width="1px" opacity="0.25"></line><line x1="0" y1="0" x2="795.375" y2="0" fill="rgb(0, 0, 0)" stroke="rgb(60, 60, 60)" stroke-width="1px" opacity="0.25"></line></g></g></g><g><g><line x1="0" y1="342.72727272727275" x2="795.375" y2="342.72727272727275" fill="rgb(0, 0, 0)" stroke="rgb(153, 153, 153)" stroke-width="1.5px"></line></g></g><g><g><line x1="66.28125" y1="0" x2="66.28125" y2="377" fill="rgb(0, 0, 0)" stroke="rgb(153, 153, 153)" stroke-width="1.5px"></line></g></g><g><g><g><g><g><path stroke="rgb(204, 51, 17)" stroke-width="2px" d="M66.28125,331.1773634668101L72.909375,328.02427280694246L79.53750000000001,319.558910145001L86.165625,309.72263689068234L92.79375,306.1582716486671L99.421875,302.936636927453L106.05,293.85436366904867L112.678125,290.66700225526637L119.30624999999999,290.4613624106754L125.93437499999999,288.096545054154L132.5625,279.939635775306L139.19062499999998,276.10109173438764L145.81875,271.5085451440378L152.446875,267.0530917834152L159.07500000000002,268.28691042282367L165.703125,261.7065477506681L172.33125,266.02490788156337L178.959375,262.22063714807683L185.5875,255.88018252090976L192.215625,259.1360905495557L198.84375,253.41254524209285L205.471875,250.60218510302633L212.1,245.52981731566518L218.728125,249.88245075399226L225.35625,247.6204533197663L231.98437500000003,246.59227452494883L238.61249999999998,240.11472666805443L245.24062500000002,241.0058224472133L251.86874999999998,241.0058224472133L258.496875,241.55418515205386L265.125,238.88090802864596L271.753125,236.37900254943156L278.38124999999997,234.59682120518252L285.009375,234.1855415160006L291.6375,232.9860012910583L298.265625,230.92963348735464L304.89375,231.30663476207042L311.521875,233.1230945207856L318.15000000000003,231.99209069663831L324.778125,236.85881863940847L331.40625,228.6676360531287L338.034375,233.05454790592196L344.6625,230.89536528695714L351.290625,224.38354922966525L357.91875,228.56482123786756L364.546875,229.04463732784447L371.175,224.829086905176L377.80312499999997,222.77272931554103L384.43125,225.75445088473236L391.059375,223.69809329509738L397.6875,225.6859042698687L404.31562499999995,227.6737254587087L410.94375,225.03472674976697L417.57187500000003,219.996637376872L424.2,224.89763352003968L430.82812499999994,219.55108948729256L437.45625,224.07509456981313L444.084375,224.28072420033544L450.7125,221.05909458615565L457.340625,220.23654542186046L463.96875000000006,221.95018015124583L470.596875,221.43609586087143L477.22499999999997,222.19008819623429L483.853125,221.81308692151853L490.48125000000005,219.75672933188355L497.109375,219.96235896240583L503.73749999999995,219.996637376872L510.365625,216.56936791810125L516.99375,219.24263482744047L523.621875,218.66000392220238L530.25,219.20836662704298L536.8781250000001,215.47263229435143L543.50625,217.18627723780548L550.134375,216.63790431889623L556.7624999999999,217.76890814304355L563.390625,214.3416386842728L570.01875,214.89000138911337L576.646875,220.0309055772695L583.275,216.6721827333624L589.903125,216.39799627390778L596.53125,216.020994999192L603.159375,214.23881365494296L609.7875,213.31344967538664L616.415625,214.17027725414798L623.04375,212.52517892555758L629.671875,212.04536283558068L636.3000000000001,211.80545479059222L642.928125,211.05145224116066L649.55625,210.84582261063838L656.1843749999999,212.7993653850122L662.8125,212.01109463518318L669.440625,213.4848213195801L676.06875,211.80545479059222L682.696875,212.52517892555758L689.325,210.64018276604742L695.953125,208.27536030249163L702.58125,210.19463487646797L709.209375,209.40636412663895L715.8375,208.8237230073322L722.465625,206.2875493277203" style="fill: none;" fill="none"></path></g><g><path stroke="rgb(255, 112, 67)" stroke-width="2px" d="M66.28125,332.49000918120146L72.909375,328.55892695486546L79.53750000000001,320.1106996698813L86.165625,310.98044582388616L92.79375,307.26185580546206L99.421875,304.4343539056453L106.05,296.064953695644L112.678125,290.69441681558436L119.30624999999999,290.26258131319827L125.93437499999999,289.2995172061703L132.5625,281.52646284211767L139.19062499999998,275.6144168972969L145.81875,273.767115758224L152.446875,266.3162284412167L159.07500000000002,267.553473900665L165.703125,260.52070969885045L172.33125,263.2179745625366L178.959375,258.39237356727773L185.5875,252.64141369949692L192.215625,256.59305301579565L198.84375,249.1764338991859L205.471875,246.09874094074425L212.1,240.95783675258812L218.728125,243.0004870620641L225.35625,237.57168913429436L231.98437500000003,237.1672732992606L238.61249999999998,229.35994562777609L245.24062500000002,231.55339644713837L251.86874999999998,230.30587052757093L258.496875,226.9814158840613L265.125,226.48446058685133L271.753125,222.80014387585902L278.38124999999997,219.88695870746267L285.009375,216.32944965904412L291.6375,216.20607392354447L298.265625,215.07507009939715L304.89375,210.59562899849632L311.521875,210.5099431763996L318.15000000000003,209.25899554382673L324.778125,215.05450917915866L331.40625,203.20985636927867L338.034375,212.55602541294968L344.6625,203.77877999435773L351.290625,197.4863110618158L357.91875,199.0148770809174L364.546875,198.02096648649737L371.175,194.19955654577777L377.80312499999997,193.00000610676682L384.43125,187.6397547938607L391.059375,188.36291085590017L397.6875,186.3510968197476L404.31562499999995,187.72200868888336L410.94375,183.54073668068108L417.57187500000003,177.56699776107615L424.2,180.27797501195562L430.82812499999994,174.29738245227122L437.45625,180.39449710737577L444.084375,176.39145038344645L450.7125,167.2920430248434L457.340625,166.34611812504858L463.96875000000006,167.42913625457072L470.596875,165.51328339359978L477.22499999999997,164.27260090004316L483.853125,162.181964895942L490.48125000000005,160.87960985573858L497.109375,154.28552968935534L503.73749999999995,149.56618054346606L510.365625,148.53114810856908L516.99375,150.08711847392001L523.621875,147.23563649437645L530.25,144.16136524894023L536.8781250000001,138.80453564903954L543.50625,139.23295454545456L550.134375,134.75008151747966L556.7624999999999,133.49912367083812L563.390625,130.15752982009542L570.01875,126.15106138316074L576.646875,128.21085089986977L583.275,124.41342359239405L589.903125,125.34220928495583L596.53125,120.32812297344213L603.159375,116.84600396589803L609.7875,115.36884535442704L616.415625,112.15406938032675L623.04375,109.01126173409551L629.671875,107.88025790994823L636.3000000000001,103.94232587380844L642.928125,101.91681477156556L649.55625,101.8756725029512L656.1843749999999,97.95831160111862L662.8125,97.18716984445405L669.440625,95.12394840067088L676.06875,92.5295136733489L682.696875,90.63766387375921L689.325,87.93011854995382L695.953125,87.43657475168061L702.58125,85.67154282873332L709.209375,84.7187540747903L715.8375,82.45333492755896L722.465625,82.85775076259267" style="fill: none;" fill="none"></path></g></g></g></g></g></g><g transform="translate(53, 377)" clip-path="url(#clip_1)"><clipPath id="clip_1"><rect width="795" height="23"></rect></clipPath><g><g><line x1="0" y1="0" x2="0" y2="5" style="visibility: inherit;" fill="rgb(0, 0, 0)" stroke="rgb(204, 204, 204)" stroke-width="1px"></line><line x1="66.28125" y1="0" x2="66.28125" y2="5" style="visibility: inherit;" fill="rgb(0, 0, 0)" stroke="rgb(204, 204, 204)" stroke-width="1px"></line><line x1="132.5625" y1="0" x2="132.5625" y2="5" style="visibility: inherit;" fill="rgb(0, 0, 0)" stroke="rgb(204, 204, 204)" stroke-width="1px"></line><line x1="198.84375" y1="0" x2="198.84375" y2="5" style="visibility: inherit;" fill="rgb(0, 0, 0)" stroke="rgb(204, 204, 204)" stroke-width="1px"></line><line x1="265.125" y1="0" x2="265.125" y2="5" style="visibility: inherit;" fill="rgb(0, 0, 0)" stroke="rgb(204, 204, 204)" stroke-width="1px"></line><line x1="331.40625" y1="0" x2="331.40625" y2="5" style="visibility: inherit;" fill="rgb(0, 0, 0)" stroke="rgb(204, 204, 204)" stroke-width="1px"></line><line x1="397.6875" y1="0" x2="397.6875" y2="5" style="visibility: inherit;" fill="rgb(0, 0, 0)" stroke="rgb(204, 204, 204)" stroke-width="1px"></line><line x1="463.96875000000006" y1="0" x2="463.96875000000006" y2="5" style="visibility: inherit;" fill="rgb(0, 0, 0)" stroke="rgb(204, 204, 204)" stroke-width="1px"></line><line x1="530.25" y1="0" x2="530.25" y2="5" style="visibility: inherit;" fill="rgb(0, 0, 0)" stroke="rgb(204, 204, 204)" stroke-width="1px"></line><line x1="596.53125" y1="0" x2="596.53125" y2="5" style="visibility: inherit;" fill="rgb(0, 0, 0)" stroke="rgb(204, 204, 204)" stroke-width="1px"></line><line x1="662.8125" y1="0" x2="662.8125" y2="5" style="visibility: inherit;" fill="rgb(0, 0, 0)" stroke="rgb(204, 204, 204)" stroke-width="1px"></line><line x1="729.09375" y1="0" x2="729.09375" y2="5" style="visibility: inherit;" fill="rgb(0, 0, 0)" stroke="rgb(204, 204, 204)" stroke-width="1px"></line><line x1="795.375" y1="0" x2="795.375" y2="5" style="visibility: inherit;" fill="rgb(0, 0, 0)" stroke="rgb(204, 204, 204)" stroke-width="1px"></line></g><g transform="translate(0, 8)"><text x="0" y="0" dx="0em" dy="0.95em" style="text-anchor: middle; visibility: hidden; font-family: &quot;Helvetica Neue&quot;, sans-serif; font-size: 12px; font-weight: 200;" fill="rgb(50, 49, 63)" stroke="none" stroke-width="1px">-10</text><text x="66.28125" y="0" dx="0em" dy="0.95em" style="text-anchor: middle; visibility: inherit; font-family: &quot;Helvetica Neue&quot;, sans-serif; font-size: 12px; font-weight: 200;" fill="rgb(50, 49, 63)" stroke="none" stroke-width="1px">0</text><text x="132.5625" y="0" dx="0em" dy="0.95em" style="text-anchor: middle; visibility: inherit; font-family: &quot;Helvetica Neue&quot;, sans-serif; font-size: 12px; font-weight: 200;" fill="rgb(50, 49, 63)" stroke="none" stroke-width="1px">10</text><text x="198.84375" y="0" dx="0em" dy="0.95em" style="text-anchor: middle; visibility: inherit; font-family: &quot;Helvetica Neue&quot;, sans-serif; font-size: 12px; font-weight: 200;" fill="rgb(50, 49, 63)" stroke="none" stroke-width="1px">20</text><text x="265.125" y="0" dx="0em" dy="0.95em" style="text-anchor: middle; visibility: inherit; font-family: &quot;Helvetica Neue&quot;, sans-serif; font-size: 12px; font-weight: 200;" fill="rgb(50, 49, 63)" stroke="none" stroke-width="1px">30</text><text x="331.40625" y="0" dx="0em" dy="0.95em" style="text-anchor: middle; visibility: inherit; font-family: &quot;Helvetica Neue&quot;, sans-serif; font-size: 12px; font-weight: 200;" fill="rgb(50, 49, 63)" stroke="none" stroke-width="1px">40</text><text x="397.6875" y="0" dx="0em" dy="0.95em" style="text-anchor: middle; visibility: inherit; font-family: &quot;Helvetica Neue&quot;, sans-serif; font-size: 12px; font-weight: 200;" fill="rgb(50, 49, 63)" stroke="none" stroke-width="1px">50</text><text x="463.96875000000006" y="0" dx="0em" dy="0.95em" style="text-anchor: middle; visibility: inherit; font-family: &quot;Helvetica Neue&quot;, sans-serif; font-size: 12px; font-weight: 200;" fill="rgb(50, 49, 63)" stroke="none" stroke-width="1px">60</text><text x="530.25" y="0" dx="0em" dy="0.95em" style="text-anchor: middle; visibility: inherit; font-family: &quot;Helvetica Neue&quot;, sans-serif; font-size: 12px; font-weight: 200;" fill="rgb(50, 49, 63)" stroke="none" stroke-width="1px">70</text><text x="596.53125" y="0" dx="0em" dy="0.95em" style="text-anchor: middle; visibility: inherit; font-family: &quot;Helvetica Neue&quot;, sans-serif; font-size: 12px; font-weight: 200;" fill="rgb(50, 49, 63)" stroke="none" stroke-width="1px">80</text><text x="662.8125" y="0" dx="0em" dy="0.95em" style="text-anchor: middle; visibility: inherit; font-family: &quot;Helvetica Neue&quot;, sans-serif; font-size: 12px; font-weight: 200;" fill="rgb(50, 49, 63)" stroke="none" stroke-width="1px">90</text><text x="729.09375" y="0" dx="0em" dy="0.95em" style="text-anchor: middle; visibility: inherit; font-family: &quot;Helvetica Neue&quot;, sans-serif; font-size: 12px; font-weight: 200;" fill="rgb(50, 49, 63)" stroke="none" stroke-width="1px">100</text><text x="795.375" y="0" dx="0em" dy="0.95em" style="text-anchor: middle; visibility: hidden; font-family: &quot;Helvetica Neue&quot;, sans-serif; font-size: 12px; font-weight: 200;" fill="rgb(50, 49, 63)" stroke="none" stroke-width="1px">110</text></g><line x1="0" y1="0" x2="795.375" y2="0" fill="rgb(0, 0, 0)" stroke="rgb(204, 204, 204)" stroke-width="1px"></line></g></g></g></g></svg>